<?xml version="1.0" encoding="UTF-8" standalone="no"?>
<!DOCTYPE svg PUBLIC "-//W3C//DTD SVG 1.1//EN"
 "http://www.w3.org/Graphics/SVG/1.1/DTD/svg11.dtd">
<!-- Generated by graphviz version 2.40.1 (20161225.0304)
 -->
<!-- Title: dependencies Pages: 1 -->
<svg width="504pt" height="284pt"
 viewBox="0.00 0.00 504.00 284.00" xmlns="http://www.w3.org/2000/svg" xmlns:xlink="http://www.w3.org/1999/xlink">
<g id="graph0" class="graph" transform="scale(1 1) rotate(0) translate(4 280)">
<title>dependencies</title>
<polygon fill="#ffffff" stroke="transparent" points="-4,4 -4,-280 500,-280 500,4 -4,4"/>
<text text-anchor="start" x="227.0091" y="-42.4" font-family="sans-serif" font-weight="bold" font-size="14.00" fill="#000000">Legend</text>
<polygon fill="#ffffb3" stroke="transparent" points="14,-10 14,-30 34,-30 34,-10 14,-10"/>
<text text-anchor="start" x="37.629" y="-15.4" font-family="sans-serif" font-size="14.00" fill="#000000"> &#160;Declarations</text>
<polygon fill="#8dd3c7" stroke="transparent" points="127,-10 127,-30 147,-30 147,-10 127,-10"/>
<text text-anchor="start" x="150.7251" y="-15.4" font-family="sans-serif" font-size="14.00" fill="#000000"> &#160;Module</text>
<polygon fill="#80b1d3" stroke="transparent" points="213,-10 213,-30 233,-30 233,-10 213,-10"/>
<text text-anchor="start" x="236.7812" y="-15.4" font-family="sans-serif" font-size="14.00" fill="#000000"> &#160;Bootstrap</text>
<polygon fill="#fdb462" stroke="transparent" points="310,-10 310,-30 330,-30 330,-10 310,-10"/>
<text text-anchor="start" x="333.6732" y="-15.4" font-family="sans-serif" font-size="14.00" fill="#000000"> &#160;Providers</text>
<polygon fill="#fb8072" stroke="transparent" points="406,-10 406,-30 426,-30 426,-10 406,-10"/>
<text text-anchor="start" x="429.7258" y="-15.4" font-family="sans-serif" font-size="14.00" fill="#000000"> &#160;Exports</text>
<g id="clust1" class="cluster">
<title>cluster_SharedModule</title>
<polygon fill="none" stroke="#000000" stroke-dasharray="1,5" points="71,-70 71,-268 425,-268 425,-70 71,-70"/>
</g>
<g id="clust2" class="cluster">
<title>cluster_SharedModule_declarations</title>
<polygon fill="none" stroke="#000000" points="215,-78 215,-130 412,-130 412,-78 215,-78"/>
</g>
<g id="clust5" class="cluster">
<title>cluster_SharedModule_imports</title>
<polygon fill="none" stroke="#000000" points="79,-78 79,-130 207,-130 207,-78 79,-78"/>
</g>
<g id="clust6" class="cluster">
<title>cluster_SharedModule_exports</title>
<polygon fill="none" stroke="#000000" points="79,-208 79,-260 417,-260 417,-208 79,-208"/>
</g>
<!-- StatusPipe -->
<g id="node1" class="node">
<title>StatusPipe</title>
<polygon fill="#ffffb3" stroke="#000000" points="403.6109,-122 328.3891,-122 328.3891,-86 403.6109,-86 403.6109,-122"/>
<text text-anchor="middle" x="366" y="-99.8" font-family="Times,serif" font-size="14.00" fill="#000000">StatusPipe</text>
</g>
<!-- SharedModule -->
<g id="node3" class="node">
<title>SharedModule</title>
<polygon fill="#8dd3c7" stroke="#000000" points="300.4231,-187 297.4231,-191 276.4231,-191 273.4231,-187 201.5769,-187 201.5769,-151 300.4231,-151 300.4231,-187"/>
<text text-anchor="middle" x="251" y="-164.8" font-family="Times,serif" font-size="14.00" fill="#000000">SharedModule</text>
</g>
<!-- StatusPipe&#45;&gt;SharedModule -->
<g id="edge1" class="edge">
<title>StatusPipe&#45;&gt;SharedModule</title>
<path fill="none" stroke="#000000" d="M366,-122.0225C366,-139.3734 366,-163 366,-163 366,-163 310.4378,-163 310.4378,-163"/>
<polygon fill="#000000" stroke="#000000" points="310.4378,-159.5001 300.4378,-163 310.4377,-166.5001 310.4378,-159.5001"/>
</g>
<!-- SeverityPipe -->
<g id="node2" class="node">
<title>SeverityPipe</title>
<polygon fill="#ffffb3" stroke="#000000" points="310.5426,-122 223.4574,-122 223.4574,-86 310.5426,-86 310.5426,-122"/>
<text text-anchor="middle" x="267" y="-99.8" font-family="Times,serif" font-size="14.00" fill="#000000">SeverityPipe</text>
</g>
<!-- SeverityPipe&#45;&gt;SharedModule -->
<g id="edge2" class="edge">
<title>SeverityPipe&#45;&gt;SharedModule</title>
<path fill="none" stroke="#000000" d="M261.7202,-122.1061C261.7202,-122.1061 261.7202,-140.991 261.7202,-140.991"/>
<polygon fill="#000000" stroke="#000000" points="258.2203,-140.9909 261.7202,-150.991 265.2203,-140.991 258.2203,-140.9909"/>
</g>
<!-- CommonModule  -->
<g id="node5" class="node">
<title>CommonModule </title>
<polygon fill="#fb8072" stroke="#000000" points="408.6677,-252 293.3323,-252 293.3323,-216 408.6677,-216 408.6677,-252"/>
<text text-anchor="middle" x="351" y="-229.8" font-family="Times,serif" font-size="14.00" fill="#000000">CommonModule </text>
</g>
<!-- SharedModule&#45;&gt;CommonModule  -->
<g id="edge4" class="edge">
<title>SharedModule&#45;&gt;CommonModule </title>
<path fill="none" stroke="#000000" stroke-dasharray="5,2" d="M300.4622,-175C303.5752,-175 305.4909,-175 305.4909,-175 305.4909,-175 305.4909,-205.9775 305.4909,-205.9775"/>
<polygon fill="#000000" stroke="#000000" points="301.991,-205.9774 305.4909,-215.9775 308.991,-205.9775 301.991,-205.9774"/>
</g>
<!-- StatusPipe  -->
<g id="node6" class="node">
<title>StatusPipe </title>
<polygon fill="#fb8072" stroke="#000000" points="275.1118,-252 196.8882,-252 196.8882,-216 275.1118,-216 275.1118,-252"/>
<text text-anchor="middle" x="236" y="-229.8" font-family="Times,serif" font-size="14.00" fill="#000000">StatusPipe </text>
</g>
<!-- SharedModule&#45;&gt;StatusPipe  -->
<g id="edge5" class="edge">
<title>SharedModule&#45;&gt;StatusPipe </title>
<path fill="none" stroke="#000000" stroke-dasharray="5,2" d="M238.5472,-187.1061C238.5472,-187.1061 238.5472,-205.991 238.5472,-205.991"/>
<polygon fill="#000000" stroke="#000000" points="235.0472,-205.9909 238.5472,-215.991 242.0472,-205.991 235.0472,-205.9909"/>
</g>
<!-- SeverityPipe  -->
<g id="node7" class="node">
<title>SeverityPipe </title>
<polygon fill="#fb8072" stroke="#000000" points="178.5414,-252 87.4586,-252 87.4586,-216 178.5414,-216 178.5414,-252"/>
<text text-anchor="middle" x="133" y="-229.8" font-family="Times,serif" font-size="14.00" fill="#000000">SeverityPipe </text>
</g>
<!-- SharedModule&#45;&gt;SeverityPipe  -->
<g id="edge6" class="edge">
<title>SharedModule&#45;&gt;SeverityPipe </title>
<path fill="none" stroke="#000000" stroke-dasharray="5,2" d="M201.6411,-169C169.306,-169 133,-169 133,-169 133,-169 133,-205.8939 133,-205.8939"/>
<polygon fill="#000000" stroke="#000000" points="129.5001,-205.8938 133,-215.8939 136.5001,-205.8939 129.5001,-205.8938"/>
</g>
<!-- CommonModule -->
<g id="node4" class="node">
<title>CommonModule</title>
<polygon fill="#8dd3c7" stroke="#000000" points="198.6681,-122 195.6681,-126 174.6681,-126 171.6681,-122 87.3319,-122 87.3319,-86 198.6681,-86 198.6681,-122"/>
<text text-anchor="middle" x="143" y="-99.8" font-family="Times,serif" font-size="14.00" fill="#000000">CommonModule</text>
</g>
<!-- CommonModule&#45;&gt;SharedModule -->
<g id="edge3" class="edge">
<title>CommonModule&#45;&gt;SharedModule</title>
<path fill="none" stroke="#000000" d="M198.7763,-104C206.857,-104 212.5091,-104 212.5091,-104 212.5091,-104 212.5091,-140.8939 212.5091,-140.8939"/>
<polygon fill="#000000" stroke="#000000" points="209.0092,-140.8938 212.5091,-150.8939 216.0092,-140.8939 209.0092,-140.8938"/>
</g>
</g>
</svg>
