<?xml version="1.0" encoding="UTF-8" standalone="no"?>
<!DOCTYPE svg PUBLIC "-//W3C//DTD SVG 1.1//EN"
 "http://www.w3.org/Graphics/SVG/1.1/DTD/svg11.dtd">
<!-- Generated by graphviz version 2.40.1 (20161225.0304)
 -->
<!-- Title: dependencies Pages: 1 -->
<svg width="1379pt" height="211pt"
 viewBox="0.00 0.00 1379.00 211.00" xmlns="http://www.w3.org/2000/svg" xmlns:xlink="http://www.w3.org/1999/xlink">
<g id="graph0" class="graph" transform="scale(1 1) rotate(0) translate(4 207)">
<title>dependencies</title>
<polygon fill="#ffffff" stroke="transparent" points="-4,4 -4,-207 1375,-207 1375,4 -4,4"/>
<text text-anchor="start" x="664.5091" y="-42.4" font-family="sans-serif" font-weight="bold" font-size="14.00" fill="#000000">Legend</text>
<polygon fill="#ffffb3" stroke="transparent" points="451.5,-10 451.5,-30 471.5,-30 471.5,-10 451.5,-10"/>
<text text-anchor="start" x="475.129" y="-15.4" font-family="sans-serif" font-size="14.00" fill="#000000"> &#160;Declarations</text>
<polygon fill="#8dd3c7" stroke="transparent" points="564.5,-10 564.5,-30 584.5,-30 584.5,-10 564.5,-10"/>
<text text-anchor="start" x="588.2251" y="-15.4" font-family="sans-serif" font-size="14.00" fill="#000000"> &#160;Module</text>
<polygon fill="#80b1d3" stroke="transparent" points="650.5,-10 650.5,-30 670.5,-30 670.5,-10 650.5,-10"/>
<text text-anchor="start" x="674.2812" y="-15.4" font-family="sans-serif" font-size="14.00" fill="#000000"> &#160;Bootstrap</text>
<polygon fill="#fdb462" stroke="transparent" points="747.5,-10 747.5,-30 767.5,-30 767.5,-10 747.5,-10"/>
<text text-anchor="start" x="771.1732" y="-15.4" font-family="sans-serif" font-size="14.00" fill="#000000"> &#160;Providers</text>
<polygon fill="#fb8072" stroke="transparent" points="843.5,-10 843.5,-30 863.5,-30 863.5,-10 843.5,-10"/>
<text text-anchor="start" x="867.2258" y="-15.4" font-family="sans-serif" font-size="14.00" fill="#000000"> &#160;Exports</text>
<g id="clust1" class="cluster">
<title>cluster_BugModule</title>
<polygon fill="none" stroke="#000000" stroke-dasharray="1,5" points="8,-70 8,-195 1363,-195 1363,-70 8,-70"/>
</g>
<g id="clust2" class="cluster">
<title>cluster_BugModule_declarations</title>
<polygon fill="none" stroke="#000000" points="1056,-78 1056,-130 1355,-130 1355,-78 1056,-78"/>
</g>
<g id="clust5" class="cluster">
<title>cluster_BugModule_imports</title>
<polygon fill="none" stroke="#000000" points="370,-78 370,-130 1048,-130 1048,-78 370,-78"/>
</g>
<g id="clust8" class="cluster">
<title>cluster_BugModule_providers</title>
<polygon fill="none" stroke="#000000" points="16,-78 16,-130 362,-130 362,-78 16,-78"/>
</g>
<!-- BugListComponent -->
<g id="node1" class="node">
<title>BugListComponent</title>
<polygon fill="#ffffb3" stroke="#000000" points="1347.4482,-122 1220.5518,-122 1220.5518,-86 1347.4482,-86 1347.4482,-122"/>
<text text-anchor="middle" x="1284" y="-99.8" font-family="Times,serif" font-size="14.00" fill="#000000">BugListComponent</text>
</g>
<!-- BugModule -->
<g id="node3" class="node">
<title>BugModule</title>
<polygon fill="#8dd3c7" stroke="#000000" points="824.3865,-187 821.3865,-191 800.3865,-191 797.3865,-187 741.6135,-187 741.6135,-151 824.3865,-151 824.3865,-187"/>
<text text-anchor="middle" x="783" y="-164.8" font-family="Times,serif" font-size="14.00" fill="#000000">BugModule</text>
</g>
<!-- BugListComponent&#45;&gt;BugModule -->
<g id="edge1" class="edge">
<title>BugListComponent&#45;&gt;BugModule</title>
<path fill="none" stroke="#000000" d="M1284,-122.2921C1284,-144.2057 1284,-178 1284,-178 1284,-178 834.4252,-178 834.4252,-178"/>
<polygon fill="#000000" stroke="#000000" points="834.4252,-174.5001 824.4252,-178 834.4251,-181.5001 834.4252,-174.5001"/>
</g>
<!-- BugDetailComponent -->
<g id="node2" class="node">
<title>BugDetailComponent</title>
<polygon fill="#ffffb3" stroke="#000000" points="1202.3767,-122 1063.6233,-122 1063.6233,-86 1202.3767,-86 1202.3767,-122"/>
<text text-anchor="middle" x="1133" y="-99.8" font-family="Times,serif" font-size="14.00" fill="#000000">BugDetailComponent</text>
</g>
<!-- BugDetailComponent&#45;&gt;BugModule -->
<g id="edge2" class="edge">
<title>BugDetailComponent&#45;&gt;BugModule</title>
<path fill="none" stroke="#000000" d="M1133,-122.1061C1133,-141.3391 1133,-169 1133,-169 1133,-169 834.524,-169 834.524,-169"/>
<polygon fill="#000000" stroke="#000000" points="834.5241,-165.5001 824.524,-169 834.524,-172.5001 834.5241,-165.5001"/>
</g>
<!-- SharedModule -->
<g id="node4" class="node">
<title>SharedModule</title>
<polygon fill="#8dd3c7" stroke="#000000" points="1040.4231,-122 1037.4231,-126 1016.4231,-126 1013.4231,-122 941.5769,-122 941.5769,-86 1040.4231,-86 1040.4231,-122"/>
<text text-anchor="middle" x="991" y="-99.8" font-family="Times,serif" font-size="14.00" fill="#000000">SharedModule</text>
</g>
<!-- SharedModule&#45;&gt;BugModule -->
<g id="edge3" class="edge">
<title>SharedModule&#45;&gt;BugModule</title>
<path fill="none" stroke="#000000" d="M991,-122.027C991,-138.3976 991,-160 991,-160 991,-160 834.592,-160 834.592,-160"/>
<polygon fill="#000000" stroke="#000000" points="834.592,-156.5001 824.592,-160 834.592,-163.5001 834.592,-156.5001"/>
</g>
<!-- BugRoutingModule -->
<g id="node5" class="node">
<title>BugRoutingModule</title>
<polygon fill="#8dd3c7" stroke="#000000" points="924.0042,-122 921.0042,-126 900.0042,-126 897.0042,-122 795.9958,-122 795.9958,-86 924.0042,-86 924.0042,-122"/>
<text text-anchor="middle" x="860" y="-99.8" font-family="Times,serif" font-size="14.00" fill="#000000">BugRoutingModule</text>
</g>
<!-- BugRoutingModule&#45;&gt;BugModule -->
<g id="edge4" class="edge">
<title>BugRoutingModule&#45;&gt;BugModule</title>
<path fill="none" stroke="#000000" d="M810.2206,-122.1061C810.2206,-122.1061 810.2206,-140.991 810.2206,-140.991"/>
<polygon fill="#000000" stroke="#000000" points="806.7206,-140.9909 810.2206,-150.991 813.7206,-140.991 806.7206,-140.9909"/>
</g>
<!-- ReactiveFormsModule -->
<g id="node6" class="node">
<title>ReactiveFormsModule</title>
<polygon fill="#8dd3c7" stroke="#000000" points="778.3047,-122 775.3047,-126 754.3047,-126 751.3047,-122 633.6953,-122 633.6953,-86 778.3047,-86 778.3047,-122"/>
<text text-anchor="middle" x="706" y="-99.8" font-family="Times,serif" font-size="14.00" fill="#000000">ReactiveFormsModule</text>
</g>
<!-- ReactiveFormsModule&#45;&gt;BugModule -->
<g id="edge5" class="edge">
<title>ReactiveFormsModule&#45;&gt;BugModule</title>
<path fill="none" stroke="#000000" d="M759.8545,-122.1061C759.8545,-122.1061 759.8545,-140.991 759.8545,-140.991"/>
<polygon fill="#000000" stroke="#000000" points="756.3546,-140.9909 759.8545,-150.991 763.3546,-140.991 756.3546,-140.9909"/>
</g>
<!-- AngularFireModule.initializeApp(args) -->
<g id="node7" class="node">
<title>AngularFireModule.initializeApp(args)</title>
<polygon fill="#8dd3c7" stroke="#000000" points="615.7057,-122 612.7057,-126 591.7057,-126 588.7057,-122 378.2943,-122 378.2943,-86 615.7057,-86 615.7057,-122"/>
<text text-anchor="middle" x="497" y="-99.8" font-family="Times,serif" font-size="14.00" fill="#000000">AngularFireModule.initializeApp(args)</text>
</g>
<!-- AngularFireModule.initializeApp(args)&#45;&gt;BugModule -->
<g id="edge6" class="edge">
<title>AngularFireModule.initializeApp(args)&#45;&gt;BugModule</title>
<path fill="none" stroke="#000000" d="M497,-122.027C497,-138.3976 497,-160 497,-160 497,-160 731.4131,-160 731.4131,-160"/>
<polygon fill="#000000" stroke="#000000" points="731.4132,-163.5001 741.4131,-160 731.4131,-156.5001 731.4132,-163.5001"/>
</g>
<!-- BugService -->
<g id="node8" class="node">
<title>BugService</title>
<ellipse fill="#fdb462" stroke="#000000" cx="298" cy="-104" rx="56.1782" ry="18"/>
<text text-anchor="middle" x="298" y="-99.8" font-family="Times,serif" font-size="14.00" fill="#000000">BugService</text>
</g>
<!-- BugService&#45;&gt;BugModule -->
<g id="edge7" class="edge">
<title>BugService&#45;&gt;BugModule</title>
<path fill="none" stroke="#000000" d="M298,-122.1061C298,-141.3391 298,-169 298,-169 298,-169 731.2294,-169 731.2294,-169"/>
<polygon fill="#000000" stroke="#000000" points="731.2294,-172.5001 741.2294,-169 731.2294,-165.5001 731.2294,-172.5001"/>
</g>
<!-- FirebaseConfigService -->
<g id="node9" class="node">
<title>FirebaseConfigService</title>
<ellipse fill="#fdb462" stroke="#000000" cx="124" cy="-104" rx="99.5539" ry="18"/>
<text text-anchor="middle" x="124" y="-99.8" font-family="Times,serif" font-size="14.00" fill="#000000">FirebaseConfigService</text>
</g>
<!-- FirebaseConfigService&#45;&gt;BugModule -->
<g id="edge8" class="edge">
<title>FirebaseConfigService&#45;&gt;BugModule</title>
<path fill="none" stroke="#000000" d="M124,-122.2921C124,-144.2057 124,-178 124,-178 124,-178 731.527,-178 731.527,-178"/>
<polygon fill="#000000" stroke="#000000" points="731.527,-181.5001 741.527,-178 731.5269,-174.5001 731.527,-181.5001"/>
</g>
</g>
</svg>
