<?xml version="1.0" encoding="UTF-8" standalone="no"?>
<!DOCTYPE svg PUBLIC "-//W3C//DTD SVG 1.1//EN"
 "http://www.w3.org/Graphics/SVG/1.1/DTD/svg11.dtd">
<!-- Generated by graphviz version 2.40.1 (20161225.0304)
 -->
<!-- Title: dependencies Pages: 1 -->
<svg width="1970pt" height="284pt"
 viewBox="0.00 0.00 1970.00 284.00" xmlns="http://www.w3.org/2000/svg" xmlns:xlink="http://www.w3.org/1999/xlink">
<g id="graph0" class="graph" transform="scale(1 1) rotate(0) translate(4 280)">
<title>dependencies</title>
<polygon fill="#ffffff" stroke="transparent" points="-4,4 -4,-280 1966,-280 1966,4 -4,4"/>
<text text-anchor="start" x="960.0091" y="-42.4" font-family="sans-serif" font-weight="bold" font-size="14.00" fill="#000000">Legend</text>
<polygon fill="#ffffb3" stroke="transparent" points="747,-10 747,-30 767,-30 767,-10 747,-10"/>
<text text-anchor="start" x="770.629" y="-15.4" font-family="sans-serif" font-size="14.00" fill="#000000"> &#160;Declarations</text>
<polygon fill="#8dd3c7" stroke="transparent" points="860,-10 860,-30 880,-30 880,-10 860,-10"/>
<text text-anchor="start" x="883.7251" y="-15.4" font-family="sans-serif" font-size="14.00" fill="#000000"> &#160;Module</text>
<polygon fill="#80b1d3" stroke="transparent" points="946,-10 946,-30 966,-30 966,-10 946,-10"/>
<text text-anchor="start" x="969.7812" y="-15.4" font-family="sans-serif" font-size="14.00" fill="#000000"> &#160;Bootstrap</text>
<polygon fill="#fdb462" stroke="transparent" points="1043,-10 1043,-30 1063,-30 1063,-10 1043,-10"/>
<text text-anchor="start" x="1066.6732" y="-15.4" font-family="sans-serif" font-size="14.00" fill="#000000"> &#160;Providers</text>
<polygon fill="#fb8072" stroke="transparent" points="1139,-10 1139,-30 1159,-30 1159,-10 1139,-10"/>
<text text-anchor="start" x="1162.7258" y="-15.4" font-family="sans-serif" font-size="14.00" fill="#000000"> &#160;Exports</text>
<g id="clust1" class="cluster">
<title>cluster_AppModule</title>
<polygon fill="none" stroke="#000000" stroke-dasharray="1,5" points="8,-70 8,-268 1954,-268 1954,-70 8,-70"/>
</g>
<g id="clust2" class="cluster">
<title>cluster_AppModule_declarations</title>
<polygon fill="none" stroke="#000000" points="1067,-78 1067,-130 1946,-130 1946,-78 1067,-78"/>
</g>
<g id="clust9" class="cluster">
<title>cluster_AppModule_imports</title>
<polygon fill="none" stroke="#000000" points="148,-78 148,-130 1059,-130 1059,-78 148,-78"/>
</g>
<g id="clust11" class="cluster">
<title>cluster_AppModule_bootstrap</title>
<polygon fill="none" stroke="#000000" points="936,-208 936,-260 1060,-260 1060,-208 936,-208"/>
</g>
<g id="clust12" class="cluster">
<title>cluster_AppModule_providers</title>
<polygon fill="none" stroke="#000000" points="16,-78 16,-130 140,-130 140,-78 16,-78"/>
</g>
<!-- AppComponent -->
<g id="node1" class="node">
<title>AppComponent</title>
<polygon fill="#ffffb3" stroke="#000000" points="1937.9399,-122 1832.0601,-122 1832.0601,-86 1937.9399,-86 1937.9399,-122"/>
<text text-anchor="middle" x="1885" y="-99.8" font-family="Times,serif" font-size="14.00" fill="#000000">AppComponent</text>
</g>
<!-- AppModule -->
<g id="node7" class="node">
<title>AppModule</title>
<polygon fill="#8dd3c7" stroke="#000000" points="1039.6571,-187 1036.6571,-191 1015.6571,-191 1012.6571,-187 956.3429,-187 956.3429,-151 1039.6571,-151 1039.6571,-187"/>
<text text-anchor="middle" x="998" y="-164.8" font-family="Times,serif" font-size="14.00" fill="#000000">AppModule</text>
</g>
<!-- AppComponent&#45;&gt;AppModule -->
<g id="edge1" class="edge">
<title>AppComponent&#45;&gt;AppModule</title>
<path fill="none" stroke="#000000" d="M1885,-122.3228C1885,-145.6602 1885,-183 1885,-183 1885,-183 1049.8882,-183 1049.8882,-183"/>
<polygon fill="#000000" stroke="#000000" points="1049.8882,-179.5001 1039.8882,-183 1049.8881,-186.5001 1049.8882,-179.5001"/>
</g>
<!-- NavbarComponent -->
<g id="node2" class="node">
<title>NavbarComponent</title>
<polygon fill="#ffffb3" stroke="#000000" points="1814.0297,-122 1691.9703,-122 1691.9703,-86 1814.0297,-86 1814.0297,-122"/>
<text text-anchor="middle" x="1753" y="-99.8" font-family="Times,serif" font-size="14.00" fill="#000000">NavbarComponent</text>
</g>
<!-- NavbarComponent&#45;&gt;AppModule -->
<g id="edge2" class="edge">
<title>NavbarComponent&#45;&gt;AppModule</title>
<path fill="none" stroke="#000000" d="M1753,-122.2921C1753,-144.2057 1753,-178 1753,-178 1753,-178 1049.6675,-178 1049.6675,-178"/>
<polygon fill="#000000" stroke="#000000" points="1049.6675,-174.5001 1039.6675,-178 1049.6675,-181.5001 1049.6675,-174.5001"/>
</g>
<!-- RegistrationComponent -->
<g id="node3" class="node">
<title>RegistrationComponent</title>
<polygon fill="#ffffb3" stroke="#000000" points="1673.766,-122 1524.234,-122 1524.234,-86 1673.766,-86 1673.766,-122"/>
<text text-anchor="middle" x="1599" y="-99.8" font-family="Times,serif" font-size="14.00" fill="#000000">RegistrationComponent</text>
</g>
<!-- RegistrationComponent&#45;&gt;AppModule -->
<g id="edge3" class="edge">
<title>RegistrationComponent&#45;&gt;AppModule</title>
<path fill="none" stroke="#000000" d="M1623.961,-122.0267C1623.961,-142.7672 1623.961,-174 1623.961,-174 1623.961,-174 1050.043,-174 1050.043,-174"/>
<polygon fill="#000000" stroke="#000000" points="1050.0431,-170.5001 1040.043,-174 1050.043,-177.5001 1050.0431,-170.5001"/>
</g>
<!-- RegistrationComponent&#45;&gt;AppModule -->
<g id="edge6" class="edge">
<title>RegistrationComponent&#45;&gt;AppModule</title>
<path fill="none" stroke="#000000" d="M1574.039,-122.1061C1574.039,-141.3391 1574.039,-169 1574.039,-169 1574.039,-169 1049.8913,-169 1049.8913,-169"/>
<polygon fill="#000000" stroke="#000000" points="1049.8913,-165.5001 1039.8913,-169 1049.8913,-172.5001 1049.8913,-165.5001"/>
</g>
<!-- LoginComponent -->
<g id="node4" class="node">
<title>LoginComponent</title>
<polygon fill="#ffffb3" stroke="#000000" points="1506.2758,-122 1391.7242,-122 1391.7242,-86 1506.2758,-86 1506.2758,-122"/>
<text text-anchor="middle" x="1449" y="-99.8" font-family="Times,serif" font-size="14.00" fill="#000000">LoginComponent</text>
</g>
<!-- LoginComponent&#45;&gt;AppModule -->
<g id="edge4" class="edge">
<title>LoginComponent&#45;&gt;AppModule</title>
<path fill="none" stroke="#000000" d="M1449,-122.302C1449,-140.2699 1449,-165 1449,-165 1449,-165 1050.024,-165 1050.024,-165"/>
<polygon fill="#000000" stroke="#000000" points="1050.024,-161.5001 1040.024,-165 1050.024,-168.5001 1050.024,-161.5001"/>
</g>
<!-- EmailComponent -->
<g id="node5" class="node">
<title>EmailComponent</title>
<polygon fill="#ffffb3" stroke="#000000" points="1373.2716,-122 1258.7284,-122 1258.7284,-86 1373.2716,-86 1373.2716,-122"/>
<text text-anchor="middle" x="1316" y="-99.8" font-family="Times,serif" font-size="14.00" fill="#000000">EmailComponent</text>
</g>
<!-- EmailComponent&#45;&gt;AppModule -->
<g id="edge5" class="edge">
<title>EmailComponent&#45;&gt;AppModule</title>
<path fill="none" stroke="#000000" d="M1316,-122.027C1316,-138.3976 1316,-160 1316,-160 1316,-160 1049.8999,-160 1049.8999,-160"/>
<polygon fill="#000000" stroke="#000000" points="1049.9,-156.5001 1039.8999,-160 1049.8999,-163.5001 1049.9,-156.5001"/>
</g>
<!-- PasswordResetComponent -->
<g id="node6" class="node">
<title>PasswordResetComponent</title>
<polygon fill="#ffffb3" stroke="#000000" points="1241.087,-122 1074.913,-122 1074.913,-86 1241.087,-86 1241.087,-122"/>
<text text-anchor="middle" x="1158" y="-99.8" font-family="Times,serif" font-size="14.00" fill="#000000">PasswordResetComponent</text>
</g>
<!-- PasswordResetComponent&#45;&gt;AppModule -->
<g id="edge7" class="edge">
<title>PasswordResetComponent&#45;&gt;AppModule</title>
<path fill="none" stroke="#000000" d="M1158,-122.1871C1158,-137.1824 1158,-156 1158,-156 1158,-156 1050.0381,-156 1050.0381,-156"/>
<polygon fill="#000000" stroke="#000000" points="1050.0382,-152.5001 1040.0381,-156 1050.0381,-159.5001 1050.0382,-152.5001"/>
</g>
<!-- AppComponent  -->
<g id="node15" class="node">
<title>AppComponent </title>
<polygon fill="#80b1d3" stroke="#000000" points="1052.439,-252 943.561,-252 943.561,-216 1052.439,-216 1052.439,-252"/>
<text text-anchor="middle" x="998" y="-229.8" font-family="Times,serif" font-size="14.00" fill="#000000">AppComponent </text>
</g>
<!-- AppModule&#45;&gt;AppComponent  -->
<g id="edge15" class="edge">
<title>AppModule&#45;&gt;AppComponent </title>
<path fill="none" stroke="#000000" stroke-dasharray="1,5" d="M998,-187.1061C998,-187.1061 998,-205.991 998,-205.991"/>
<polygon fill="#000000" stroke="#000000" points="994.5001,-205.9909 998,-215.991 1001.5001,-205.991 994.5001,-205.9909"/>
</g>
<!-- BrowserModule -->
<g id="node8" class="node">
<title>BrowserModule</title>
<polygon fill="#8dd3c7" stroke="#000000" points="1051.4734,-122 1048.4734,-126 1027.4734,-126 1024.4734,-122 944.5266,-122 944.5266,-86 1051.4734,-86 1051.4734,-122"/>
<text text-anchor="middle" x="998" y="-99.8" font-family="Times,serif" font-size="14.00" fill="#000000">BrowserModule</text>
</g>
<!-- BrowserModule&#45;&gt;AppModule -->
<g id="edge8" class="edge">
<title>BrowserModule&#45;&gt;AppModule</title>
<path fill="none" stroke="#000000" d="M998,-122.1061C998,-122.1061 998,-140.991 998,-140.991"/>
<polygon fill="#000000" stroke="#000000" points="994.5001,-140.9909 998,-150.991 1001.5001,-140.991 994.5001,-140.9909"/>
</g>
<!-- HttpModule -->
<g id="node9" class="node">
<title>HttpModule</title>
<polygon fill="#8dd3c7" stroke="#000000" points="926.4387,-122 923.4387,-126 902.4387,-126 899.4387,-122 841.5613,-122 841.5613,-86 926.4387,-86 926.4387,-122"/>
<text text-anchor="middle" x="884" y="-99.8" font-family="Times,serif" font-size="14.00" fill="#000000">HttpModule</text>
</g>
<!-- HttpModule&#45;&gt;AppModule -->
<g id="edge9" class="edge">
<title>HttpModule&#45;&gt;AppModule</title>
<path fill="none" stroke="#000000" d="M884,-122.1871C884,-137.1824 884,-156 884,-156 884,-156 946.1979,-156 946.1979,-156"/>
<polygon fill="#000000" stroke="#000000" points="946.198,-159.5001 956.1979,-156 946.1979,-152.5001 946.198,-159.5001"/>
</g>
<!-- BugModule -->
<g id="node10" class="node">
<title>BugModule</title>
<polygon fill="#8dd3c7" stroke="#000000" points="823.3865,-122 820.3865,-126 799.3865,-126 796.3865,-122 740.6135,-122 740.6135,-86 823.3865,-86 823.3865,-122"/>
<text text-anchor="middle" x="782" y="-99.8" font-family="Times,serif" font-size="14.00" fill="#000000">BugModule</text>
</g>
<!-- BugModule&#45;&gt;AppModule -->
<g id="edge10" class="edge">
<title>BugModule&#45;&gt;AppModule</title>
<path fill="none" stroke="#000000" d="M782,-122.027C782,-138.3976 782,-160 782,-160 782,-160 946.0969,-160 946.0969,-160"/>
<polygon fill="#000000" stroke="#000000" points="946.0969,-163.5001 956.0969,-160 946.0969,-156.5001 946.0969,-163.5001"/>
</g>
<!-- FormsModule -->
<g id="node11" class="node">
<title>FormsModule</title>
<polygon fill="#8dd3c7" stroke="#000000" points="722.8288,-122 719.8288,-126 698.8288,-126 695.8288,-122 627.1712,-122 627.1712,-86 722.8288,-86 722.8288,-122"/>
<text text-anchor="middle" x="675" y="-99.8" font-family="Times,serif" font-size="14.00" fill="#000000">FormsModule</text>
</g>
<!-- FormsModule&#45;&gt;AppModule -->
<g id="edge11" class="edge">
<title>FormsModule&#45;&gt;AppModule</title>
<path fill="none" stroke="#000000" d="M675,-122.302C675,-140.2699 675,-165 675,-165 675,-165 946.1045,-165 946.1045,-165"/>
<polygon fill="#000000" stroke="#000000" points="946.1046,-168.5001 956.1045,-165 946.1045,-161.5001 946.1046,-168.5001"/>
</g>
<!-- ReactiveFormsModule -->
<g id="node12" class="node">
<title>ReactiveFormsModule</title>
<polygon fill="#8dd3c7" stroke="#000000" points="609.3047,-122 606.3047,-126 585.3047,-126 582.3047,-122 464.6953,-122 464.6953,-86 609.3047,-86 609.3047,-122"/>
<text text-anchor="middle" x="537" y="-99.8" font-family="Times,serif" font-size="14.00" fill="#000000">ReactiveFormsModule</text>
</g>
<!-- ReactiveFormsModule&#45;&gt;AppModule -->
<g id="edge12" class="edge">
<title>ReactiveFormsModule&#45;&gt;AppModule</title>
<path fill="none" stroke="#000000" d="M537,-122.1061C537,-141.3391 537,-169 537,-169 537,-169 946.2763,-169 946.2763,-169"/>
<polygon fill="#000000" stroke="#000000" points="946.2763,-172.5001 956.2763,-169 946.2762,-165.5001 946.2763,-172.5001"/>
</g>
<!-- AppRoutingModule -->
<g id="node13" class="node">
<title>AppRoutingModule</title>
<polygon fill="#8dd3c7" stroke="#000000" points="446.2744,-122 443.2744,-126 422.2744,-126 419.2744,-122 317.7256,-122 317.7256,-86 446.2744,-86 446.2744,-122"/>
<text text-anchor="middle" x="382" y="-99.8" font-family="Times,serif" font-size="14.00" fill="#000000">AppRoutingModule</text>
</g>
<!-- AppRoutingModule&#45;&gt;AppModule -->
<g id="edge13" class="edge">
<title>AppRoutingModule&#45;&gt;AppModule</title>
<path fill="none" stroke="#000000" d="M382,-122.0267C382,-142.7672 382,-174 382,-174 382,-174 946.1441,-174 946.1441,-174"/>
<polygon fill="#000000" stroke="#000000" points="946.1441,-177.5001 956.1441,-174 946.1441,-170.5001 946.1441,-177.5001"/>
</g>
<!-- CoreModule.forRoot() -->
<g id="node14" class="node">
<title>CoreModule.forRoot()</title>
<polygon fill="#8dd3c7" stroke="#000000" points="299.6313,-122 296.6313,-126 275.6313,-126 272.6313,-122 156.3687,-122 156.3687,-86 299.6313,-86 299.6313,-122"/>
<text text-anchor="middle" x="228" y="-99.8" font-family="Times,serif" font-size="14.00" fill="#000000">CoreModule.forRoot()</text>
</g>
<!-- CoreModule.forRoot()&#45;&gt;AppModule -->
<g id="edge14" class="edge">
<title>CoreModule.forRoot()&#45;&gt;AppModule</title>
<path fill="none" stroke="#000000" d="M228,-122.2921C228,-144.2057 228,-178 228,-178 228,-178 946.3284,-178 946.3284,-178"/>
<polygon fill="#000000" stroke="#000000" points="946.3285,-181.5001 956.3284,-178 946.3284,-174.5001 946.3285,-181.5001"/>
</g>
<!-- AuthGuard -->
<g id="node16" class="node">
<title>AuthGuard</title>
<ellipse fill="#fdb462" stroke="#000000" cx="78" cy="-104" rx="54.4566" ry="18"/>
<text text-anchor="middle" x="78" y="-99.8" font-family="Times,serif" font-size="14.00" fill="#000000">AuthGuard</text>
</g>
<!-- AuthGuard&#45;&gt;AppModule -->
<g id="edge16" class="edge">
<title>AuthGuard&#45;&gt;AppModule</title>
<path fill="none" stroke="#000000" d="M78,-122.3228C78,-145.6602 78,-183 78,-183 78,-183 946.0789,-183 946.0789,-183"/>
<polygon fill="#000000" stroke="#000000" points="946.0789,-186.5001 956.0789,-183 946.0788,-179.5001 946.0789,-186.5001"/>
</g>
</g>
</svg>
